<?xml version="1.0" encoding="UTF-8"?>
<svg version="1.1" xmlns="http://www.w3.org/2000/svg" width="358" height="358">
<path d="M0 0 C1.36560059 0.00303635 1.36560059 0.00303635 2.75878906 0.00613403 C3.68723633 0.00517731 4.61568359 0.00422058 5.57226562 0.00323486 C7.53938871 0.00255298 9.50651403 0.00440781 11.47363281 0.00857544 C14.49581932 0.01392358 17.51785721 0.00863071 20.54003906 0.00222778 C22.44628939 0.00288856 24.35253963 0.00416972 26.25878906 0.00613403 C27.16918945 0.0041098 28.07958984 0.00208557 29.01757812 0 C35.39383938 0.02399685 35.39383938 0.02399685 36.50878906 1.13894653 C36.63200573 3.61377051 36.69492627 6.06493844 36.71972656 8.54129028 C36.74783633 10.08752408 36.77650096 11.63374787 36.80566406 13.17996216 C36.84662208 15.61525753 36.88350374 18.05037432 36.91015625 20.48587036 C37.08076433 34.83312702 38.35288755 47.37890417 48.61816406 58.40457153 C57.97658634 67.11758537 67.91898592 70.6741237 80.68066406 70.38894653 C89.10586738 69.64417718 96.48851313 66.78353974 103.50878906 62.13894653 C104.12496094 61.73160278 104.74113281 61.32425903 105.37597656 60.90457153 C112.71615455 55.35865927 116.74600839 46.70155977 119.50878906 38.13894653 C117.65362671 38.14680176 117.65362671 38.14680176 115.76098633 38.15481567 C111.18954181 38.17286215 106.61810047 38.18437724 102.04663086 38.19387817 C100.06485465 38.19891921 98.08308217 38.20575191 96.10131836 38.21438599 C93.25926798 38.22646168 90.41726659 38.23217698 87.57519531 38.23660278 C86.23769981 38.24434471 86.23769981 38.24434471 84.8731842 38.25224304 C82.75138305 38.2524383 80.62968126 38.20104683 78.50878906 38.13894653 C76.72048458 36.35064205 77.38030195 33.94313502 77.36984253 31.56253052 C77.37287888 30.39379395 77.37287888 30.39379395 77.37597656 29.20144653 C77.37501984 28.40617554 77.37406311 27.61090454 77.37307739 26.79153442 C77.37239563 25.10688193 77.37424964 23.42222682 77.37841797 21.73757935 C77.38376631 19.14995457 77.37847287 16.56250337 77.37207031 13.97488403 C77.37273109 12.34207115 77.37401226 10.70925837 77.37597656 9.07644653 C77.37395233 8.29728882 77.3719281 7.5181311 77.36984253 6.71536255 C77.39383802 1.25389758 77.39383802 1.25389758 78.50878906 0.13894653 C81.67494743 0.04358316 84.81916553 0.01345322 87.9855957 0.02542114 C88.99675918 0.02530061 90.00792265 0.02518007 91.04972744 0.02505589 C94.33948872 0.02580532 97.62919411 0.03343495 100.91894531 0.04129028 C102.94331841 0.04275961 104.96769188 0.04378038 106.99206543 0.04434204 C114.51847908 0.04959603 122.04488461 0.0635571 129.57128906 0.07644653 C146.38066406 0.09707153 163.19003906 0.11769653 180.50878906 0.13894653 C180.50878906 35.77894653 180.50878906 71.41894653 180.50878906 108.13894653 C167.63878906 108.13894653 154.76878906 108.13894653 141.50878906 108.13894653 C141.17878906 98.89894653 140.84878906 89.65894653 140.50878906 80.13894653 C138.92066406 81.95394653 137.33253906 83.76894653 135.69628906 85.63894653 C122.1232731 100.60520573 102.78734196 111.03495852 82.41088867 112.26565552 C60.28139654 113.0292462 40.85374123 108.40835607 23.50878906 94.13894653 C22.74308594 93.54726685 21.97738281 92.95558716 21.18847656 92.34597778 C5.10213011 79.20225568 -4.66760829 58.09212938 -6.74365234 37.65368652 C-7.09950266 32.52241664 -7.21921931 27.39119202 -7.27514648 22.24880981 C-7.3042988 19.58523485 -7.35957775 16.92309955 -7.41894531 14.26004028 C-7.45100142 12.56345261 -7.48165673 10.86683774 -7.51074219 9.17019653 C-7.52522903 8.37561035 -7.53971588 7.58102417 -7.55464172 6.76235962 C-7.5731979 4.88786119 -7.53784738 3.0129566 -7.49121094 1.13894653 C-5.54257169 -0.80969271 -2.59312374 0.00975913 0 0 Z " fill="#FE5432" transform="translate(93.4912109375,200.86105346679688)"/>
<path d="M0 0 C1.40488097 1.17678222 2.8008818 2.36425257 4.1875 3.5625 C5.27417969 4.41714844 5.27417969 4.41714844 6.3828125 5.2890625 C21.29683603 17.50089361 30.06276621 35.81409728 33.1875 54.5625 C33.1875 59.1825 33.1875 63.8025 33.1875 68.5625 C18.9975 68.5625 4.8075 68.5625 -9.8125 68.5625 C-10.4725 64.2725 -11.1325 59.9825 -11.8125 55.5625 C-16.57061728 42.43059849 -23.40459728 35.20527644 -35.77514648 29.20751953 C-49.51078638 22.87529619 -65.52973106 22.52272296 -79.8125 27.5625 C-90.44060992 31.61963777 -99.88705342 39.14869866 -104.8125 49.5625 C-107.55689795 55.931356 -108.10478602 61.48536018 -108.8125 68.5625 C-123.0025 68.5625 -137.1925 68.5625 -151.8125 68.5625 C-151.8125 48.21966881 -147.32499022 30.24664043 -133.8125 14.5625 C-133.2659375 13.86253906 -132.719375 13.16257812 -132.15625 12.44140625 C-102.1084368 -24.29077218 -36.78457626 -28.0690669 0 0 Z " fill="#FE5432" transform="translate(238.8125,62.4375)"/>
<path d="M0 0 C4.70075001 3.11642315 7.99616619 7.22042026 10.546875 12.2109375 C11.80073493 19.31614378 12.22057848 26.13226351 8.51171875 32.546875 C4.71581698 37.55873416 0.13974845 41.48460641 -5.890625 43.3984375 C-13.22645154 44.2686183 -19.90341037 44.02082471 -25.890625 39.3984375 C-30.66685663 34.86811087 -34.42624046 30.4874338 -35.19140625 23.75 C-35.22754834 15.34094012 -33.42714643 9.26196093 -27.6796875 2.9765625 C-19.76043777 -4.00897656 -9.25936229 -4.62968115 0 0 Z " fill="#FE5432" transform="translate(119.890625,145.6015625)"/>
</svg>
