<svg xmlns="http://www.w3.org/2000/svg" viewBox="0 0 772 772">
  <path fill="#F97316" d="M 103.558594 0 L 666.644531 0 C 687.710938 0.378906 708.660156 7.011719 725.949219 19.089844 C 753.601563 38.039063 771.398438 70.507813 772.144531 104.0625 C 772.332031 127.695313 772.171875 151.339844 772.222656 174.980469 C 772.207031 338.328125 772.25 501.667969 772.199219 665.019531 C 772.28125 696.171875 757.839844 726.878906 733.910156 746.789063 C 715.0625 762.820313 690.507813 771.789063 665.789063 772 L 106.28125 772 C 74.191406 771.832031 42.699219 756.28125 23 730.96875 C 8.578125 712.820313 0.449219 689.871094 0 666.699219 L 0 105.351563 C 0.449219 77.179688 12.539063 49.441406 32.960938 30.03125 C 51.738281 11.761719 77.410156 1 103.558594 0 Z"/>
  <path fill="#FFFFFF" d="M 127.480469 124.550781 C 130.53125 122.359375 134.46875 122.761719 138.019531 122.71875 C 186.351563 122.75 234.691406 122.738281 283.019531 122.71875 C 286.570313 122.789063 290.5 122.289063 293.628906 124.367188 C 296.910156 126.347656 298.679688 130.21875 298.488281 134 C 298.5 179.730469 298.507813 225.457031 298.488281 271.191406 C 292.660156 271.28125 286.832031 271.050781 281.019531 271.28125 C 277.152344 271.539063 275.621094 277 278.582031 279.398438 C 311.109375 312.570313 343.710938 345.691406 376.230469 378.867188 C 380.070313 382.628906 380.050781 389.410156 376.199219 393.152344 C 343.6875 426.332031 311.097656 459.441406 278.589844 492.621094 C 275.578125 495.019531 277.1875 500.53125 281.089844 500.71875 C 286.878906 500.941406 292.691406 500.71875 298.488281 500.8125 C 298.480469 546.851563 298.550781 592.898438 298.460938 638.941406 C 298.582031 644.53125 293.519531 649.410156 287.96875 649.21875 C 236.660156 649.308594 185.351563 649.25 134.039063 649.25 C 130.332031 649.398438 126.578125 647.660156 124.578125 644.46875 C 122.289063 641.101563 123.019531 636.832031 122.898438 633 C 122.921875 466.667969 122.898438 300.332031 122.910156 133.992188 C 122.71875 130.320313 124.378906 126.589844 127.480469 124.550781 Z M 474.128906 132.910156 C 474.058594 127.230469 479.359375 122.402344 484.988281 122.75 C 536.3125 122.738281 587.628906 122.6875 638.9375 122.78125 C 644.847656 122.621094 649.820313 128.191406 649.300781 134.03125 C 649.3125 302.011719 649.3125 470 649.3125 637.980469 C 649.882813 644.210938 644.230469 649.808594 638.007813 649.257813 C 587.011719 649.257813 536 649.289063 485 649.238281 C 479.351563 649.589844 474.058594 644.769531 474.128906 639.078125 C 474.03125 592.988281 474.101563 546.898438 474.089844 500.8125 C 480.03125 500.699219 485.96875 500.96875 491.910156 500.699219 C 495.570313 500.300781 497.109375 495.128906 494.199219 492.8125 C 461.699219 459.621094 429.109375 426.507813 396.570313 393.347656 C 392.628906 389.710938 392.371094 382.898438 396.179688 379.089844 C 428.820313 345.738281 461.589844 312.519531 494.21875 279.171875 C 497.070313 276.832031 495.570313 271.660156 491.878906 271.300781 C 485.960938 271.03125 480.019531 271.289063 474.089844 271.191406 C 474.109375 225.101563 474.019531 179 474.128906 132.910156 Z"/>
</svg>
