<?xml version="1.0" encoding="UTF-8"?>
<svg id="Layer_1" data-name="Layer 1" xmlns="http://www.w3.org/2000/svg" viewBox="0 0 960 960" preserveAspectRatio="xMidYMid meet">
  <defs>
    <style>
      .cls-1, .cls-2 {
        fill-rule: evenodd;
        stroke-width: 0px;
      }

      .cls-2 {
        fill: #de007b;
      }
    </style>
  </defs>
  <g transform="translate(480, 480)">
    <g transform="scale(4.8) translate(-75, -500)">
      <path class="cls-2" d="M51.21,535.43c-17.08-17.19-20.93-42.77-11.41-63.69-9.52-20.93-5.74-46.43,11.41-63.69,21.98-22.12,57.61-22.12,79.6,0,17.08,17.19,20.93,42.77,11.41,63.69,9.52,20.93,5.74,46.43-11.41,63.69l-33.18,33.47c-3.64,3.59-9.59,3.59-13.23-.07l-33.18-33.39ZM119.39,454.34c-3.64,5.28-10.22,7.26-16.03,5.35-13.16-4.58-28.35-1.62-38.85,8.95-14.63,14.72-14.63,38.68,0,53.4l26.53,26.7,26.53-26.7c8.47-8.53,12.04-20.15,10.71-31.28l-30.66,30.86c-3.64,3.59-9.59,3.59-13.23-.07l-23.73-23.81c-1.26-1.27-1.26-3.31,0-4.58l1.05-1.06c5.53-5.5,14.42-5.5,19.88,0l9.38,9.44,26.53-26.7c14.63-14.72,14.63-38.68,0-53.4-14.63-14.73-38.44-14.73-53.07,0-8.54,8.59-12.11,20.22-10.71,31.42,18.13-16.13,44.17-18.46,64.62-7.05.63.35,1.96,1.06,2.45,1.55,1.12,1.06,1.4,2.89.42,4.23,0,0-1.82,2.75-1.82,2.75Z"/>
    </g>
  </g>
</svg>